/* XPM */
static char *_c725c7f7f574d49c26477ce046768a9iGAAxTRnncHIzQFe[] = {
/* columns rows colors chars-per-pixel */
"80 80 44 1 ",
"  c None",
". c #5E9C76",
"X c #65798E",
"o c #66798E",
"O c #66788F",
"+ c #67788F",
"@ c #66798F",
"# c #667A8F",
"$ c #667990",
"% c #7F91A6",
"& c #85B29C",
"* c #889BAF",
"= c #899BB0",
"- c #94A6B9",
"; c #97A9BD",
": c #9DACBD",
"> c #9DADBE",
", c #F78F8F",
"< c #CFABB5",
"1 c #E0A0A6",
"2 c #9BC9A5",
"3 c #BAE0BD",
"4 c #D3D5BE",
"5 c #FFEEA3",
"6 c #E5E0B3",
"7 c #A8BACD",
"8 c #A9BACD",
"9 c #AEBBCC",
"0 c #AEBCCC",
"q c #AEC9C4",
"w c #B0C1D4",
"e c #B9C8D9",
"r c #BDC9D9",
"t c #BCD0D1",
"y c #C1CBC9",
"u c #CAD0C3",
"i c #C1CDDC",
"p c #C1CFDD",
"a c #CAD6E2",
"s c #D3DDE7",
"d c #D2DBE8",
"f c #D6DFEB",
"g c #E5EBF1",
"h c white",
/* pixels */
"                                                                                ",
"                                                                                ",
"                                                                                ",
"                @@@@@@@@@@@@@@@@@@@@@@@@@@@@@@@@@@@@@@@@@@@@@@@$                ",
"               @@@@@@@@@@@@@@@@@@@@@@@@@@@@@@@@@@@@@@@@@@@@@@@@@@               ",
"              @@@>riiiiiiiiiiiiiiiiiiiiiiiiiiiiiiiiiiiiiiiiiir>@@@              ",
"              @@0ffffffffffffffffffffffffffffffffffffffffffffff9@@              ",
"             @@@dffffffffffffffffffffffffffffffffffffffffffffffd@@@             ",
"             @@@ffffffffffffffffffffffffffffffffffffffffffffffff@@#             ",
"             @@@ffffffffffffffffffffffffffffffffffffffffffffffff@@#             ",
"             #@@ffffftqqqqqqqqqqqqqqqqqqqqqqqqqqqqqqqqqqqqtfffff@@#             ",
"             @@@fffff&....................................&fffff@@#             ",
"             #@@fffff&....................................&fffff@@#             ",
"             #@@fffff&..22222222222222222222222222222222..&fffff@@#             ",
"             #@@fffff&..33333333333333333333333333333333..&fffff@@#             ",
"             #@@fffff&..33333333333333333333333333333333..&fffff@@#             ",
"             #@@fffff&..33333333333333333333333333333333..&fffff@@#             ",
"             #@@fffff&..33333333333333333333333333333333..&fffff@@#             ",
"             #@@fffff&..22222222222222222222222222222222..&fffff@@#             ",
"             #@@fffff&....................................&fffff@@#             ",
"             #@@fffff&....................................&fffff@@#             ",
"             #@@ffffftqqqqqqqqqqqqqqqqqqqqqqqqqqqqqqqqqqqqtfffff@@#             ",
"             #@@ffffffffffffffffffffffffffffffffffffffffffffffff@@#             ",
"             #@@ffffffffffffffffffffffffffffffffffffffffffffffff@@#             ",
"             #@@wwwwwwwwwwwwwwwwwwwwwwwwwwwwwwwwwwwwwwwwwwwwwwww@@#             ",
"             #@@wwwwwwwwwwwwwwwwwwwwwwwwwwwwwwwwwwwwwwwwwwwwwwww@@#             ",
"             #@@wwwwwwwwwwwwwwwwwwwwwwwwwwwwwwwwwwwwwwwwwwwwwwww@@#             ",
"             #@@wwwwwwwwwwwwwwwwwwwwwwwwwwwwwwwwwwwwwwwwwwwwwwww@@#             ",
"             #@@wwwwwwwwwwwwwwwwwwwwwwwwwwwwwwwwwwwwwwwwwwwwwwww@@#             ",
"             #@@wwwwwsggggswwwwwgggggpwwwwigggggwwwww466664wwwww@@#             ",
"             #@@wwwwwghhhhgwwwwwhhhhhawwwwahhhhhwwwww655556wwwww@@#             ",
"             #@@wwwwwghhhhgwwwwwhhhhhawwwwahhhhhwwwww655556wwwww@@#             ",
"             #@@wwwwwghhhhgwwwwwhhhhhawwwwahhhhhwwwww655556wwwww@@#             ",
"             #@@wwwwwghhhhgwwwwwhhhhhawwwwahhhhhwwwww655556wwwww@@#             ",
"             #@@wwwwwsggggswwwwwgggggiwwwwigggggwwwww466664wwwww@@#             ",
"             #@@wwwwwwwwwwwwwwwwwwwwwwwwwwwwwwwwwwwwwwwwwwwwwwww@@#             ",
"             #@@wwwwwwwwwwwwwwwwwwwwwwwwwwwwwwwwwwwwwwwwwwwwwwww@@#             ",
"             #@@wwwwwwwwwwwwwwwwwwwwwwwwwwwwwwwwwwwwwwwwwwwwwwww@@#             ",
"             #@@wwwwwwwwwwwwwwwwwwwwwwwwwwwwwwwwwwwwwwwwwwwwwwww@@#             ",
"             #@@wwwwwwwwwwwwwwwwwwwwwwwwwwwwwwwwwwwwwwwwwwwwwwww@@#             ",
"             #@@wwwwwghhhhgwwwwwhhhhhawwwwahhhhhwwwww655556wwwww@@#             ",
"             #@@wwwwwghhhhgwwwwwhhhhhawwwwahhhhhwwwww655556wwwww@@#             ",
"             #@@wwwwwghhhhgwwwwwhhhhhawwwwahhhhhwwwww655556wwwww@@#             ",
"             #@@wwwwwghhhhgwwwwwhhhhhawwwwahhhhhwwwww655556wwwww@@#             ",
"             @@@wwwwwghhhhgwwwwwhhhhhawwwwahhhhhwwwww655556wwwww@@#             ",
"             @@@wwwwwiaaaaiwwwwwaaaaaewwwweaaaaawwwwwyuuuuywwwww@@#             ",
"             @@@wwwwwwwwwwwwwwwwwwwwwwwwwwwwwwwwwwwwwwwwwwwwwwww@@#             ",
"             #@@wwwwwwwwwwwwwwwwwwwwwwwwwwwwwwwwwwwwwwwwwwwwwwww@@#             ",
"             #@@wwwwwwwwwwwwwwwwwwwwwwwwwwwwwwwwwwwwwwwwwwwwwwww@@#             ",
"             #@@wwwwwwwwwwwwwwwwwwwwwwwwwwwwwwwwwwwwwwwwwwwwwwww@@#             ",
"             #@@wwwwwiaaaaiwwwwwaaaaaewwwweaaaaawwwwwyuuuuywwwww@@#             ",
"             #@@wwwwwghhhhgwwwwwhhhhhawwwwahhhhhwwwww655556wwwww@@#             ",
"             #@@wwwwwghhhhgwwwwwhhhhhawwwwahhhhhwwwww655556wwwww@@#             ",
"             #@@wwwwwghhhhgwwwwwhhhhhawwwwahhhhhwwwww655556wwwww@@#             ",
"             #@@wwwwwghhhhgwwwwwhhhhhawwwwahhhhhwwwww655556wwwww@@#             ",
"             #@@wwwwwghhhhgwwwwwhhhhhawwwwahhhhhwwwww655556wwwww@@#             ",
"             #@@wwwwwwwwwwwwwwwwwwwwwwwwwwwwwwwwwwwwwwwwwwwwwwww@@#             ",
"             #@@wwwwwwwwwwwwwwwwwwwwwwwwwwwwwwwwwwwwwwwwwwwwwwww@@#             ",
"             #@@wwwwwwwwwwwwwwwwwwwwwwwwwwwwwwwwwwwwwwwwwwwwwwww@@#             ",
"             #@@wwwwwwwwwwwwwwwwwwwwwwwwwwwwwwwwwwwwwwwwwwwwwwww@@#             ",
"             #@@wwwwwwwwwwwwwwwwwwwwwwwwwwwwwwwwwwwwwwwwwwwwwwww@@#             ",
"             #@@wwwwwsggggswwwwwgggggiwwwwigggggwwwww<1111<wwwww@@#             ",
"             #@@wwwwwghhhhgwwwwwhhhhhawwwwahhhhhwwwww1,,,,1wwwww@@#             ",
"             #@@wwwwwghhhhgwwwwwhhhhhawwwwahhhhhwwwww1,,,,1wwwww@@#             ",
"             #@@wwwwwghhhhgwwwwwhhhhhawwwwahhhhhwwwww1,,,,1wwwww@@#             ",
"             #@@wwwwwghhhhgwwwwwhhhhhawwwwahhhhhwwwww1,,,,1wwwww@@@             ",
"             #@@wwwwwsggggswwwwwgggggiwwwwigggggwwwww<1111<wwwww@@@             ",
"             #@@wwwwwwwwwwwwwwwwwwwwwwwwwwwwwwwwwwwwwwwwwwwwwwww@@@             ",
"             #@@wwwwwwwwwwwwwwwwwwwwwwwwwwwwwwwwwwwwwwwwwwwwwwww@@#             ",
"             #@@wwwwwwwwwwwwwwwwwwwwwwwwwwwwwwwwwwwwwwwwwwwwwwww@@#             ",
"             #@@wwwwwwwwwwwwwwwwwwwwwwwwwwwwwwwwwwwwwwwwwwwwwwww@@#             ",
"             #@@wwwwwwwwwwwwwwwwwwwwwwwwwwwwwwwwwwwwwwwwwwwwwwww@@#             ",
"             $@@8wwwwwwwwwwwwwwwwwwwwwwwwwwwwwwwwwwwwwwwwwwwwww8@@@             ",
"              @@=wwwwwwwwwwwwwwwwwwwwwwwwwwwwwwwwwwwwwwwwwwwwww*@@              ",
"              @@@%-;;;;;;;;;;;;;;;;;;;;;;;;;;;;;;;;;;;;;;;;;;-%@@@              ",
"               @@@@@@@@@@@@@@@@@@@@@@@@@@@@@@@@@@@@@@@@@@@@@@@@@@               ",
"                $@@@@@@@@@@@@@@@@@@@@@@@@@@@@@@@@@@@@@@@@@@@@@@@                ",
"                                                                                ",
"                                                                                ",
"                                                                                "
};
